<svg width="80" height="80" viewBox="0 0 80 80" fill="none" xmlns="http://www.w3.org/2000/svg">
<path d="M76.8523 30.0083C76.8646 30.2285 76.8484 30.4525 76.7931 30.675L71.8585 50.4133C71.6097 51.4077 70.7185 52.1069 69.6939 52.1123L40.0864 52.2618C40.0825 52.2618 40.079 52.2618 40.0751 52.2618H10.4673C9.43731 52.2618 8.53981 51.5602 8.29099 50.5607L3.35641 30.7476C3.29959 30.5191 3.28314 30.2889 3.2975 30.0631C1.38856 29.4616 0 27.6753 0 25.5702C0 22.9728 2.1129 20.8599 4.71028 20.8599C7.30766 20.8599 9.42056 22.9728 9.42056 25.5702C9.42056 27.0329 8.75035 28.3416 7.70093 29.2062L13.879 35.431C15.4404 37.0044 17.6072 37.9064 19.8239 37.9064C22.4449 37.9064 24.9438 36.6616 26.5175 34.5763L36.6708 21.1231C35.8179 20.2708 35.2897 19.0931 35.2897 17.7945C35.2897 15.1971 37.4026 13.0842 40 13.0842C42.5974 13.0842 44.7103 15.1971 44.7103 17.7945C44.7103 19.0542 44.2102 20.1975 43.4019 21.0436C43.4046 21.0471 43.4079 21.0501 43.4105 21.054L53.4902 34.5443C55.0633 36.6497 57.5713 37.9067 60.1998 37.9067C62.4368 37.9067 64.5404 37.0355 66.1222 35.4534L72.3391 29.2365C71.2676 28.3722 70.5794 27.0509 70.5794 25.5702C70.5794 22.9728 72.6923 20.8599 75.2897 20.8599C77.8871 20.8599 80 22.9728 80 25.5702C80 27.6191 78.6826 29.3618 76.8523 30.0083ZM71.377 59.2898C71.377 58.0511 70.3728 57.0468 69.1341 57.0468H11.1154C9.87664 57.0468 8.87237 58.0511 8.87237 59.2898V64.673C8.87237 65.9117 9.87664 66.916 11.1154 66.916H69.1341C70.3728 66.916 71.377 65.9117 71.377 64.673V59.2898Z" fill="#DB2B72"/>
</svg>
