<svg width="74" height="58" viewBox="0 0 74 58" fill="none" xmlns="http://www.w3.org/2000/svg">
<path d="M73.25 43.4968H62.275L59.9156 57.1593L52.2938 43.4968H23.4062V35.6843H53.0938V11.1531H73.25V43.4968ZM50.5938 0.840576V33.1843H21.7078L14.0844 46.8515L11.7234 33.1843H0.75V0.840576H50.5938ZM18.3631 22.6443C18.3631 21.0601 16.448 20.2671 15.328 21.3871C14.208 22.5071 15.0009 24.4225 16.5852 24.4225C17.5672 24.4225 18.3633 23.6264 18.3633 22.6443H18.3631ZM27.8858 22.6443C27.8752 21.0631 25.9608 20.2815 24.8464 21.4032C23.7322 22.5251 24.5266 24.4343 26.1078 24.4343C27.0944 24.4343 27.8925 23.631 27.8859 22.6443H27.8858ZM37.4084 22.6443C37.4084 21.0601 35.4933 20.2671 34.3733 21.3871C33.2531 22.5071 34.0462 24.4225 35.6305 24.4225C36.6123 24.4225 37.4086 23.6264 37.4086 22.6443H37.4084Z" fill="#DB2B72"/>
</svg>
