<svg width="80" height="80" viewBox="0 0 80 80" fill="none" xmlns="http://www.w3.org/2000/svg">
<path d="M73.6615 68.3683V63.2428C76.6619 62.986 79.0482 60.5403 79.0482 57.4761C79.0482 54.4118 76.6619 51.966 73.6615 51.7093V46.5694C76.6619 46.3127 79.0482 43.8662 79.0482 40.8021C79.0482 37.7382 76.6619 35.2921 73.6615 35.0362V29.7777C76.6619 29.5216 79.0482 27.0757 79.0482 24.0109C79.0482 20.9459 76.6619 18.501 73.6615 18.2439V11.6293C76.6619 11.3776 79.0512 8.92759 79.0512 5.86254C79.0512 2.62876 76.4224 -0.000244141 73.1901 -0.000244141C69.9577 -0.000244141 67.3289 2.6286 67.3289 5.86254C67.3289 6.32303 67.4896 6.72884 67.5917 7.15862H62.538C62.6401 6.72965 62.8008 6.32303 62.8008 5.86254C62.8008 2.62876 60.1718 -0.000244141 56.9396 -0.000244141C53.7071 -0.000244141 51.0783 2.6286 51.0783 5.86254C51.0783 6.32303 51.239 6.72884 51.3411 7.15862H45.8658C45.9664 6.72965 46.1277 6.32303 46.1277 5.86254C46.1277 2.62876 43.498 -0.000244141 40.2665 -0.000244141C37.0342 -0.000244141 34.4053 2.6286 34.4053 5.86254C34.4053 6.32303 34.5652 6.72884 34.6673 7.15862H29.0738C29.1743 6.72965 29.3357 6.32303 29.3357 5.86254C29.3357 2.62876 26.7068 -0.000244141 23.4745 -0.000244141C20.2406 -0.000244141 17.6133 2.6286 17.6133 5.86254C17.6133 6.32303 17.7732 6.72884 17.8752 7.15862H12.4124C12.5134 6.72965 12.6741 6.32303 12.6741 5.86254C12.6741 2.62876 10.0459 -8.32962e-05 6.81279 -8.32962e-05C3.58046 -8.32962e-05 0.952263 2.62876 0.952263 5.8627C0.952263 8.98147 3.41672 11.4857 6.49384 11.6587V18.2128C3.41688 18.3856 0.948242 20.8917 0.948242 24.0103C0.948242 27.1286 3.41608 29.6333 6.49384 29.8058V35.0038C3.41688 35.1792 0.948242 37.6826 0.948242 40.8013C0.948242 43.9204 3.41608 46.4246 6.49384 46.5972V51.6762C3.41688 51.852 0.948242 54.3554 0.948242 57.4745C0.948242 60.5936 3.41608 63.0971 6.49384 63.2727V68.3353C3.41688 68.5103 0.952263 71.0137 0.952263 74.1336C0.952263 77.3659 3.58046 79.9933 6.81279 79.9933C9.9758 79.9933 12.5289 77.4636 12.6347 74.3273H17.6503C17.7565 77.4636 20.3084 80.0001 23.4747 80.0001C26.641 80.0001 29.1922 77.4636 29.2985 74.3273H34.4425C34.5488 77.4636 37.1006 80.0001 40.267 80.0001C43.4334 80.0001 45.9842 77.4636 46.0907 74.3273H51.1158C51.2223 77.4636 53.7731 80.0001 56.9395 80.0001C60.1059 80.0001 62.6573 77.4636 62.7646 74.3273H67.3686C67.4743 77.4636 70.0266 79.9933 73.1907 79.9933C76.4224 79.9933 79.0519 77.3659 79.0519 74.1336C79.0512 71.0698 76.6611 68.6189 73.6615 68.3683ZM62.0033 62.6631H18.1533V18.8239H62.005V62.6631H62.0033Z" fill="#DB2B72"/>
</svg>
