<svg width="144" height="40" viewBox="0 0 144 40" fill="none" xmlns="http://www.w3.org/2000/svg">
<path d="M26.9568 13.7676C26.4082 9.98064 22.8035 7.06153 18.6503 7.06153C11.1667 7.06153 8.34563 13.4915 8.34563 20.1581C8.34563 26.5091 11.1667 32.9391 18.6503 32.9391C23.7439 32.9391 26.6041 29.3888 27.2702 24.379H35.3416C34.4796 33.9253 27.9363 40.0002 18.6503 40.0002C6.89592 40.0002 0 31.2034 0 20.1581C0 8.83666 6.89592 0.000427246 18.6503 0.000427246C26.9959 0.000427246 34.0094 4.93136 35.0281 13.7676H26.9568Z" fill="black"/>
<path d="M63.6687 13.7671C63.1201 9.98015 59.5155 7.06104 55.3622 7.06104C47.8786 7.06104 45.0575 13.491 45.0575 20.1576C45.0575 26.5087 47.8786 32.9386 55.3622 32.9386C60.4558 32.9386 63.3161 29.3883 63.9821 24.3785H72.0535C71.1915 33.8853 64.6874 39.9997 55.3622 39.9997C43.6078 39.9997 36.7119 31.1635 36.7119 20.1576C36.7119 8.83618 43.6078 -6.10352e-05 55.3622 -6.10352e-05C63.7079 -6.10352e-05 70.7213 4.93088 71.74 13.7671H63.6687Z" fill="black"/>
<path d="M100.383 13.7671C99.834 9.98015 96.2293 7.06104 92.0761 7.06104C84.5925 7.06104 81.7714 13.491 81.7714 20.1576C81.7714 26.5087 84.5925 32.9386 92.0761 32.9386C97.1697 32.9386 100.03 29.3883 100.696 24.3785H108.767C107.905 33.8853 101.362 39.9997 92.0761 39.9997C80.3217 39.9997 73.4258 31.1635 73.4258 20.1576C73.4258 8.83618 80.3609 -6.10352e-05 92.0761 -6.10352e-05C100.422 -6.10352e-05 107.435 4.93088 108.454 13.7671H100.383Z" fill="black"/>
<path d="M111.784 0.907104H129.651C136.86 0.907104 141.758 3.27395 141.758 10.3745C141.758 14.122 139.916 16.7256 136.586 18.3429C141.209 19.6841 143.56 23.2738 143.56 28.0075C143.56 35.7787 137.017 39.0923 130.16 39.0923H111.784V0.907104ZM120.13 16.3705H128.593C131.532 16.3705 133.687 15.0293 133.687 11.8341C133.687 8.20489 130.905 7.45539 127.966 7.45539H120.169V16.3705H120.13ZM120.13 32.5834H129.063C132.354 32.5834 135.215 31.5184 135.215 27.5736C135.215 23.6683 132.785 22.1299 129.22 22.1299H120.13V32.5834Z" fill="black"/>
</svg>
